<?xml version="1.0" encoding="UTF-8" standalone="no"?>
<!-- Created with Inkscape (http://www.inkscape.org/) -->

<svg
   xmlns:dc="http://purl.org/dc/elements/1.1/"
   xmlns:cc="http://creativecommons.org/ns#"
   xmlns:rdf="http://www.w3.org/1999/02/22-rdf-syntax-ns#"
   xmlns:svg="http://www.w3.org/2000/svg"
   xmlns="http://www.w3.org/2000/svg"
   xmlns:sodipodi="http://sodipodi.sourceforge.net/DTD/sodipodi-0.dtd"
   xmlns:inkscape="http://www.inkscape.org/namespaces/inkscape"
   width="210mm"
   height="297mm"
   viewBox="0 0 210 297"
   version="1.1"
   id="svg8"
   inkscape:version="0.92.4 (5da689c313, 2019-01-14)"
   sodipodi:docname="soppa.svg">
  <defs
     id="defs2" />
  <sodipodi:namedview
     id="base"
     pagecolor="#ffffff"
     bordercolor="#666666"
     borderopacity="1.0"
     inkscape:pageopacity="0.0"
     inkscape:pageshadow="2"
     inkscape:zoom="1"
     inkscape:cx="401.15071"
     inkscape:cy="558.07542"
     inkscape:document-units="mm"
     inkscape:current-layer="layer1"
     showgrid="false"
     inkscape:window-width="1920"
     inkscape:window-height="1129"
     inkscape:window-x="-8"
     inkscape:window-y="-8"
     inkscape:window-maximized="1" />
  <metadata
     id="metadata5">
    <rdf:RDF>
      <cc:Work
         rdf:about="">
        <dc:format>image/svg+xml</dc:format>
        <dc:type
           rdf:resource="http://purl.org/dc/dcmitype/StillImage" />
        <dc:title></dc:title>
      </cc:Work>
    </rdf:RDF>
  </metadata>
  <g
     inkscape:label="Layer 1"
     inkscape:groupmode="layer"
     id="layer1">
    <path
       style="fill:#784421;stroke:#000000;stroke-width:0.26458332px;stroke-linecap:butt;stroke-linejoin:miter;stroke-opacity:1"
       d="m 48.758927,139.7619 c 0,0 21.544644,-12.09524 73.327373,-13.22917 51.78274,-1.13393 59.34227,8.69346 59.34227,8.69346 0,0 -12.88899,20.48631 -52.84107,20.75089 C 88.635416,156.24167 48.758927,139.7619 48.758927,139.7619 Z"
       id="path3719"
       inkscape:connector-curvature="0"
       sodipodi:nodetypes="csc" />
    <ellipse
       id="path3721"
       cx="118.43413"
       cy="149.78772"
       rx="63.202343"
       ry="15.515923"
       style="fill:#ccff00;stroke-width:0.3177495" />
    <path
       style="fill:#ccff00;fill-opacity:1;stroke-width:0.26458332"
       id="path3729"
       d="m 89.682269,58.087209 c -0.918099,0.728623 -1.783133,1.51706 -2.625305,2.331238 -0.928031,0.89679 -1.80668,1.838931 -2.619052,2.841395 -0.774007,0.951606 -1.444241,1.975144 -2.051772,3.038684 -0.598025,1.007631 -1.079445,2.070836 -1.493864,3.164501 -0.374129,0.994286 -0.611643,2.028802 -0.813483,3.069106 -0.195053,0.905801 -0.149169,1.827604 -0.03402,2.739393 0.135628,0.991023 0.532236,1.909447 0.932074,2.816757 0.390935,0.877948 0.817613,1.739992 1.196607,2.623126 0.363726,0.950336 0.79901,1.865371 1.321843,2.737774 0.684374,1.034105 1.371179,2.067464 2.078148,3.086383 0.650926,0.972386 1.423371,1.853721 2.181082,2.742689 0.78803,0.915792 1.557592,1.846051 2.30495,2.795207 0.67873,0.896315 1.414243,1.749642 2.039779,2.68483 0.564059,0.864409 0.956265,1.821407 1.310727,2.786081 0.372507,0.967581 0.452011,1.984306 0.416562,3.010097 -0.03707,0.58317 -0.09203,1.17229 -0.252259,1.73683 -0.08524,0.30033 -0.187486,0.55822 -0.295933,0.8507 -0.457679,1.01511 -1.096233,1.93291 -1.768727,2.81521 -0.711522,0.88405 -1.390811,1.79315 -2.111041,2.67018 -0.65168,0.78857 -1.316554,1.56586 -1.955787,2.36467 -0.575228,0.71753 -1.084352,1.48304 -1.545667,2.27764 -0.411877,0.66775 -0.726554,1.38488 -1.026438,2.10768 -0.284562,0.66359 -0.549735,1.33481 -0.821369,2.00363 -0.294093,0.68363 -0.514022,1.39797 -0.698574,2.11819 -0.111223,0.49467 -0.22179,0.9888 -0.283134,1.49244 -0.04711,0.50888 -0.12927,1.01407 -0.215849,1.51751 -0.107165,0.54441 -0.168207,1.09548 -0.203708,1.64869 -0.03947,0.36418 -0.0052,0.72275 0.03326,1.08423 0.03068,0.56923 0.03537,1.14085 0.05145,1.71124 0.01905,0.55428 0.07162,1.10847 0.14024,1.65879 0.138194,0.73451 0.332155,1.4575 0.514672,2.182 0.121254,0.43012 0.0574,0.21838 0.191085,0.63536 0,0 -1.70126,0.93429 -1.70126,0.93429 v 0 c -0.135996,-0.42577 -0.07121,-0.20981 -0.193937,-0.64803 -0.181877,-0.73106 -0.368199,-1.46155 -0.525756,-2.19825 -0.0917,-0.55306 -0.135062,-1.11669 -0.155464,-1.67663 -0.01423,-0.56322 -0.02397,-1.12787 -0.05592,-1.68967 -0.04599,-0.37277 -0.09082,-0.74063 -0.04449,-1.11726 0.03385,-0.56126 0.09882,-1.12055 0.20394,-1.67318 0.08961,-0.497 0.15869,-0.99843 0.207024,-1.50115 0.06045,-0.51504 0.171722,-1.01912 0.290036,-1.52368 0.181287,-0.72627 0.403378,-1.44549 0.679791,-2.14121 0.287203,-0.6671 0.54246,-1.34785 0.839417,-2.0111 0.299038,-0.72529 0.588106,-1.45883 1.006057,-2.12644 0.465156,-0.80774 0.980842,-1.58453 1.560854,-2.31516 0.632394,-0.80115 1.286563,-1.58347 1.943992,-2.36408 0.729017,-0.86859 1.41166,-1.77345 2.113288,-2.66404 0.678222,-0.86218 1.322482,-1.76202 1.786728,-2.76037 0.313005,-0.81849 0.558168,-1.65292 0.583195,-2.53705 0.02471,-0.46031 0.0452,-0.59352 0.01487,-1.05992 -0.04186,-0.643786 -0.198868,-1.271269 -0.399902,-1.882181 C 91.392117,97.518023 91.001018,96.581226 90.44076,95.729614 89.825906,94.795095 89.105749,93.936917 88.429308,93.047078 87.675005,92.106979 86.905422,91.179149 86.13047,90.256018 85.366182,89.363139 84.56655,88.493869 83.929275,87.501941 83.230833,86.472497 82.542704,85.435913 81.838886,84.410403 81.301634,83.53703 80.879687,82.605421 80.498301,81.6543 80.103352,80.777912 79.709554,79.90102 79.314679,79.024601 78.902697,78.102832 78.476281,77.176859 78.34708,76.164164 c -0.122103,-0.926417 -0.197406,-1.868832 -2.65e-4,-2.791508 0.209751,-1.049811 0.449318,-2.094248 0.814332,-3.103083 0.39674,-1.11151 0.898178,-2.176317 1.492538,-3.197037 0.594019,-1.080104 1.263179,-2.111817 2.042668,-3.069244 0.809006,-1.011274 1.673101,-1.971746 2.613001,-2.864159 0.824699,-0.800767 1.660798,-1.589744 2.555269,-2.313133 0,0 1.81773,-0.738791 1.81773,-0.738791 z"
       inkscape:connector-curvature="0" />
    <path
       style="fill:#ccff00;fill-opacity:1;stroke-width:0.26458332"
       id="path3731"
       d="m 119.29812,66.701838 c -0.87048,0.770896 -1.64501,1.642616 -2.44166,2.487809 -1.09704,1.125683 -2.16313,2.2767 -3.15561,3.49577 -0.93021,1.187728 -1.70541,2.48231 -2.25403,3.887293 -0.31139,1.18174 -0.13902,2.057434 0.37037,3.137828 0.75179,1.202563 1.95802,2.013636 3.07356,2.850309 0.20586,0.155183 0.41136,0.31084 0.61758,0.46555 0.57471,0.431178 0.62851,0.445548 1.17362,0.945282 0.59486,0.545336 1.1275,1.141378 1.65185,1.75296 0.98972,1.131536 1.61631,2.485882 2.16906,3.868047 0.51723,1.419455 0.73984,2.922553 0.89372,4.418788 0.11857,1.437095 0.1058,2.880659 0.0657,4.320701 -0.006,1.392214 -0.15328,2.774425 -0.35307,4.150115 -0.22391,1.32748 -0.56755,2.63042 -0.88754,3.93695 -0.30948,1.18232 -0.57615,2.37527 -0.89624,3.55477 -0.2744,1.10009 -0.64804,2.16492 -1.12769,3.19122 -0.0732,0.15071 -0.14088,0.30424 -0.21961,0.45214 -0.17443,0.32769 -0.46311,0.79496 -0.65034,1.11013 -0.32791,0.55203 -0.64522,1.10997 -0.96346,1.66759 -0.42438,0.79688 -0.90364,1.61353 -1.05876,2.51701 -0.0219,0.12749 -0.0256,0.25743 -0.0385,0.38614 10e-4,0.598 0.28195,0.88942 0.71123,1.25362 0,0 -1.64653,1.02618 -1.64653,1.02618 v 0 c -0.46971,-0.40843 -0.7797,-0.76245 -0.79343,-1.41867 0.0115,-0.1376 0.013,-0.27638 0.0343,-0.4128 0.14434,-0.92241 0.62321,-1.7654 1.05427,-2.57725 0.32111,-0.55841 0.63871,-1.11872 0.96687,-1.67304 0.15897,-0.26853 0.48529,-0.80354 0.6376,-1.08693 0.0794,-0.1478 0.1486,-0.30088 0.22291,-0.45132 0.49234,-1.01458 0.87976,-2.06955 1.1526,-3.16524 0.3227,-1.17941 0.58789,-2.37399 0.90714,-3.55447 0.054,-0.22109 0.10797,-0.44219 0.16196,-0.66328 0.0484,-0.2162 0.0928,-0.43337 0.14529,-0.64861 0.21156,-0.86684 0.46047,-1.72596 0.59265,-2.6107 0.19553,-1.36977 0.3525,-2.7474 0.367,-4.132748 0.0394,-1.432033 0.0498,-2.866114 -0.0631,-4.295616 -0.1353,-1.484122 -0.34842,-2.968487 -0.86182,-4.375711 -0.53727,-1.366543 -1.17114,-2.691487 -2.13412,-3.816493 -0.51665,-0.606157 -1.04131,-1.195043 -1.63567,-1.727829 -0.44503,-0.398934 -0.70035,-0.578567 -1.16922,-0.935585 -0.20451,-0.155724 -0.40893,-0.311576 -0.61339,-0.467366 -0.8224,-0.620146 -1.73669,-1.256659 -2.45788,-1.992767 -0.31097,-0.3174 -0.45075,-0.553225 -0.69989,-0.915252 -0.0694,-0.149463 -0.1468,-0.295434 -0.20806,-0.448392 -0.36288,-0.906039 -0.45015,-1.881111 -0.22276,-2.832161 0.55033,-1.427414 1.34127,-2.735612 2.26273,-3.955568 0.365,-0.452057 0.69411,-0.869212 1.07785,-1.30601 0.66036,-0.751658 1.37079,-1.459172 2.04999,-2.193444 0.7865,-0.832141 1.55143,-1.687282 2.37806,-2.479852 0,0 1.81442,-0.739098 1.81442,-0.739098 z"
       inkscape:connector-curvature="0" />
    <path
       style="fill:#ccff00;fill-opacity:1;stroke-width:0.26458332"
       id="path3733"
       d="m 139.80204,138.94441 c -0.33662,-0.35438 -0.70802,-0.68122 -0.97844,-1.09275 -0.18087,-0.27524 -0.21783,-0.39153 -0.34876,-0.68835 -0.33043,-0.9534 -0.15944,-1.98211 -0.011,-2.95466 0.32378,-1.50291 0.79987,-2.97046 1.27877,-4.43014 0.57418,-1.7279 1.33105,-3.38301 2.11567,-5.02305 0.80014,-1.67217 1.5919,-3.3482 2.37802,-5.02699 0.87027,-1.86546 1.86386,-3.66864 2.86898,-5.46367 1.11739,-1.96458 2.16087,-3.96996 3.12545,-6.01364 0.52167,-1.2165 1.05569,-2.44072 1.37889,-3.72883 0.19332,-0.77046 0.19838,-0.96929 0.30106,-1.74032 0.0468,-0.72883 0.0979,-1.48809 -0.0645,-2.20928 -0.18212,-0.808728 -0.58098,-1.51475 -0.98479,-2.227151 -1.10371,-1.654461 -2.63037,-2.953348 -4.12743,-4.237625 -1.03107,-0.914008 -2.07143,-1.821304 -3.0484,-2.793981 -0.2218,-0.22083 -0.44635,-0.439632 -0.65326,-0.674482 -0.23027,-0.261374 -0.43797,-0.5418 -0.65696,-0.812699 -0.83087,-1.090528 -1.57296,-2.248691 -2.18324,-3.477204 -0.35303,-0.710637 -0.41401,-0.90042 -0.70622,-1.623687 -0.58771,-1.482019 -0.74062,-3.052617 -0.76732,-4.63145 0.0261,-1.05673 0.19413,-2.108025 0.47478,-3.126692 0.0739,-0.268078 0.14589,-0.53767 0.2458,-0.797168 0.13027,-0.338352 0.29566,-0.66211 0.44349,-0.993164 1.01925,-2.297827 2.57905,-4.273516 4.09931,-6.252305 0.90035,-1.142379 1.73312,-2.332742 2.48903,-3.574624 0,0 1.70676,-0.754682 1.70676,-0.754682 v 0 c -0.77124,1.253966 -1.61956,2.455937 -2.53002,3.613481 -1.50472,1.969698 -3.08294,3.912878 -4.0894,6.200716 -0.14126,0.320199 -0.29778,0.63409 -0.42377,0.960599 -0.47393,1.228215 -0.66195,2.561215 -0.73952,3.866867 0.0147,1.581457 0.16022,3.082777 0.72509,4.576173 0.2783,0.709623 0.34406,0.917627 0.68364,1.614209 0.59551,1.221571 1.32454,2.374913 2.15581,3.449357 0.22043,0.264396 0.43264,0.535858 0.66127,0.793187 1.12031,1.260927 2.43226,2.341475 3.69456,3.452984 1.49863,1.314929 3.03002,2.633951 4.17078,4.286115 0.40844,0.724847 0.83802,1.464167 1.03509,2.282719 0.17693,0.734887 0.10689,1.519187 0.0675,2.262547 -0.10624,0.80017 -0.10814,0.96911 -0.30117,1.77016 -0.31465,1.30583 -0.862,2.53706 -1.38965,3.76716 -0.96024,2.04708 -1.99734,4.05734 -3.11519,6.02316 -1.00003,1.78846 -1.9841,3.58836 -2.85674,5.4432 -0.78075,1.68156 -1.57078,3.35856 -2.3761,5.02853 -0.78766,1.6298 -1.52915,3.28317 -2.11765,4.99697 -0.47255,1.44439 -0.92987,2.89824 -1.25445,4.38413 -0.14531,0.93655 -0.32206,1.92401 -0.0155,2.84647 0.12091,0.28338 0.15132,0.38931 0.32361,0.65023 0.26186,0.39658 0.62097,0.7193 0.97554,1.03008 0,0 -1.6594,1.04955 -1.6594,1.04955 z"
       inkscape:connector-curvature="0" />
  </g>
  <g
     inkscape:groupmode="layer"
     id="layer2"
     inkscape:label="Layer 2">
    <path
       style="fill:#a05a2c;stroke:#000000;stroke-width:0.26458332px;stroke-linecap:butt;stroke-linejoin:miter;stroke-opacity:1"
       d="m 181.42857,135.22619 c 0,0 14.36309,100.54166 -69.16964,97.89583 -83.53274,-2.64583 -63.500003,-93.36012 -63.500003,-93.36012 0,0 31.372025,8.69346 73.327373,9.82739 41.95536,1.13393 59.34227,-14.3631 59.34227,-14.3631 z"
       id="path3717"
       inkscape:connector-curvature="0"
       sodipodi:nodetypes="cscsc" />
  </g>
</svg>
